<svg version="1" xmlns="http://www.w3.org/2000/svg" width="1120" height="1120" viewBox="0 0 840 840"><path d="M616.7 1.7c.3.7.9 1 1.4.7.5-.3.9-.1.9.5 0 .5-.9.9-1.9.8-1.1 0-1.7-.5-1.5-.9.3-.4-.2-.5-1-.2-.9.3-1.6 1.1-1.6 1.7 0 .8-.3.8-1.1 0-.7-.7-2.2-.8-3.8-.3-1.4.4-3.4.6-4.3.4-1-.1-2 .2-2.4.7-.3.5-1 .6-1.6.3-.7-.4-.8-.2-.4.5.6.9 1.1.9 2.2 0 .8-.7 1.4-.7 1.4-.1 0 1.3-2.6 2.3-4.5 1.6-.8-.4-1.5-.2-1.5.3s-1.6.8-3.6.7c-2.9-.3-3.4-.1-2.4 1 .8 1.1.8 1.6-.1 2.2-.8.4-.9.3-.5-.4s.5-1.2.2-1.2c-.2 0-1.1-.3-2-.6-.9-.3-1.6-.1-1.6.6 0 .6.5.8 1 .5.6-.3 1-.1 1 .4 0 1.1-1.3 1.5-3.9 1.1-.7-.1-2 .8-2.8 1.9-.8 1.2-1.9 2.1-2.5 2.1-.7 0-.3-.7.8-1.6 1.8-1.4 1.8-1.5-.3-.4-1.3.6-2.3 1.5-2.3 2.1 0 .6-.4.8-.9.5-1.4-.9-4 .4-3.5 1.8.2.6-.3 1.3-1.3 1.4-3.8.4-5.4.9-5.3 1.5v1.3c0 .4.6.1 1.3-.5 1-.8 1.4-.7 1.4.3 0 .7-1 1.3-2.1 1.2-1.6-.1-2.1.5-2 2.1 0 1.3-.1 2.3-.3 2.3-.2 0-.8-1-1.3-2.3l-.9-2.2v2.2c-.1 1.2-.5 2.4-1.1 2.8-.5.3-.7 1.2-.4 1.9.3.9-.1 1.3-1.3 1.3-1.1-.1-1.8.5-1.8 1.5s-.6 2.3-1.4 3c-1 1-1.2 1-.7.1.5-.8.2-1.1-.7-.7-.8.3-1.4 1.5-1.3 2.7.1 1.6-.5 2.2-2 2.1-1.6 0-2.1.7-2.3 3.5-.8 8.7-.6 14.7.3 15.3.8.5.7.8 0 .8-.8 0-1 1.1-.5 3.2.6 2.8.7 17.3.1 17.3-.1 0-.3 1.7-.4 3.7-.1 2-.5 4-1 4.5-.5.4-.6.3-.2-.5.4-.7.2-1.2-.5-1.2-.8 0-.7-.5.2-1.7.8-.9.9-1.4.2-1-.6.4-1.3.1-1.6-.5-.2-.7-.4.7-.5 3.2-.3 11.5-.3 11.9-2 11.3-1.2-.4-1.1-.1.3 1 2 1.6 2 1.6-.2 1.7-1.3 0-2.3.4-2.3.9s.7.8 1.6.7c.9 0 1.8.5 2 1.2.1.7 0 .8-.2.3-.7-1.4-3.4-.2-3.4 1.6 0 .9.5 1.1 1.3.7.9-.6.9-.4-.1.8-.7.9-1.4 4.3-1.5 7.6-.1 4.6-.4 5.9-1.5 5.4-1-.3-1-.7-.2-1.2s.7-1-.2-1.8c-1-.8-1.4-.2-1.5 2.6-.2 2.4 0 3.2.6 2.4.7-1.1.9-1.1 1.4.2.4.9.1 1.5-.5 1.3-1.3-.2-1.9 2.4-1.9 9.1 0 3.6-.3 4.2-1.7 3.8-1.8-.6-1.7-1-2.3 10.7-.3 4.8-.6 5.6-2 5.2-1.4-.5-1.7.1-1.4 4 .1 2.5-.1 4.5-.5 4.5s-.7 1.4-.6 3.1c0 2.1-.4 3.3-1.4 3.6-1.3.4-1.3.3 0-.7 1.2-.9 1.2-1.1.1-.8-.9.3-1.5 2.1-1.7 5.4-.1 2.7-.3 4.9-.4 4.9-.1 0-.3 1.7-.4 3.8-.2 3.9-2.2 7.3-2.2 3.8 0-1.1.3-1.8.6-1.6.4.2.7-.2.7-1s-.4-1.5-.9-1.5c-.9 0-.9-.2-1.4 7.5-.2 3.3-.5 7.3-.8 9-.3 1.6-.5 3.3-.5 3.7-.1.4-.7.5-1.5.2-1-.4-1.3.3-1.1 2.5.1 1.8-.2 3.1-.9 3.1s-.8.3-.1.8c.6.4.8 2 .4 3.7-.4 1.6-.7 2.5-.8 1.8-.2-1.9-2.7-.5-2.8 1.5-.6 10.9-.6 11.2-2.2 11-1.2-.2-1.6.7-1.7 3.7-.5 10.4-.8 12.4-2 12.9-1 .4-1.1-.1-.3-2.2s.8-2.4-.1-1.5c-1.1 1-1.6 3.6-1.9 10.1-.1 1.3-.5 2.1-1 1.7-.5-.3-1.3-.1-1.6.5-.4.6-.1.9.7.8 1.8-.4 2.2 3.6.5 5-1.1.9-1.4.8-1.4-.3 0-.8.3-1.2.7-1 .4.2.7-.2.7-.9s-.6-1.3-1.2-1.3c-.8 0-1.1 1.6-1 4.3.1 2.4-.1 4.1-.5 3.9-.3-.2-.5 1.5-.4 3.7.3 5.6-.4 7.4-2.1 5.2-1-1.4-1.2-1.1-1.3 2.2-.3 8.7-.8 11.4-2.1 12.6-1 1-1.2 1-.7 0 .4-.6.2-1.2-.3-1.2-.7 0-1.1 2.4-1.1 5.7 0 3.2-.5 6.5-1 7.3-.6 1-1 1.1-1 .2 0-.6-.5-1.2-1-1.2-.6 0-1 1-.9 2.2.5 5.5-.1 11.3-1.1 9.8-.5-.8-1.2-1.1-1.6-.7-.4.3-.1 1.3.6 2.2 1.1 1.3 1 1.5-.2 1s-1.5.6-1.7 5.2c-.3 6.5-.5 7-2.5 5.4-1.1-.9-1.3-.7-1.3 1.4 0 1.5.4 2.2 1.1 1.8.6-.3.6 0-.1.8-.7.7-1.3 2.3-1.3 3.6 0 1.7-.4 2.1-1.7 1.7-1.5-.5-1.5-.4.1.6 1.5 1 1.6 1.4.5 2.1-.8.4-1.6.3-2-.3-.4-.6-.6 1.3-.5 4.2 0 2.8-.2 5.4-.7 5.7-.4.2-.5.8-.2 1.3s0 1.2-.6 1.6c-.7.4-.9.3-.6-.3.3-.5.1-1-.6-1s-1.2 1.4-1.3 3.1c-.2 6.5-.7 10.5-1.3 10.4-2.1-.2-2.8.5-2.7 2.9.1 1.6-.4 3.9-1.2 5.2-.8 1.3-.9 2-.3 1.7.6-.4 1.1 0 1.1.8 0 .9-.3 1.5-.7 1.5-2-.3-3.4.2-2.8 1.1.3.5 1.3.6 2.3.3.9-.3 1.4-.3 1 .1-.3.4-1.4.9-2.5 1.1-1 .2-1.9.4-2.1.4-.1.1.2 1 .8 2.1.8 1.4.8 2 0 2-.7 0-.9.8-.5 1.9.3 1.1.1 2.2-.5 2.6-1.7 1.1-2.6-.5-1-1.6 1.3-.9 1.3-1 0-.6-.8.2-1.5 1.5-1.6 2.8-.4 7.8-.4 7.9-2.4 7.9-1.1 0-2 .4-2 1 0 .5.6.7 1.4.4.8-.3 1.7 0 2.2.7.4.7.3 1-.4.5-1.4-.8-3.6 3-2.8 4.9.3.8.1 1.7-.4 2-.4.3-.7 1.6-.6 3 .2 1.3 0 2.4-.3 2.3-2.2-.2-3.1.5-3.1 2.4-.1 6.4-.1 6.7-1.6 6.1-1-.4-1.2-.9-.4-1.8.8-.9.7-1.4-.3-1.8-.8-.3-1.3.3-1.4 1.7-.2 8.6-.4 9.6-1.8 9.6-.9 0-1.6 1.4-2 3.7-.3 2.1-.8 4.6-1 5.5-.2 1 .1 1.8.6 1.8.6 0 .4.6-.3 1.4-.7.7-1.8 1.2-2.4.9-.7-.2-1.1.7-1 2.4.2 3.6-1.2 6.6-2.6 5.7-.7-.4-.8-.3-.4.5.4.6 1.2.9 1.7.6.5-.4.9.1.9 1 0 1.3-.4 1.4-2.1.4-1.5-.8-1.9-.8-1.5 0 .4.6.2 1.1-.5 1.1-.8 0-.7.5.2 1.7 1.2 1.4 1.2 1.6 0 .8-1.1-.6-1.3-.4-.9.7.4.8 0 1.5-.8 1.5-.7 0-1.1-.4-.8-.9.3-.4 0-.8-.6-.8s-.8-1.1-.6-2.5c.3-1.4.1-2.5-.4-2.5s-.7-.9-.5-2c.2-1.2 0-1.8-.6-1.5-.5.4-.7 1-.4 1.5.3.5 0 1.2-.6 1.6-.8.4-.9.3-.5-.4s.3-1.2-.3-1.2c-.5 0-.8-.9-.6-2 .2-1.1 0-2.2-.5-2.5-.5-.3-.7-1.4-.5-2.5.3-1.7.1-1.8-1.4-1-1.6.8-1.8.5-1.9-1.8 0-1.5-.1-3-.2-3.5-.1-.4-.3-1.3-.4-2 0-.6-.8-1.2-1.6-1.2-.9 0-1.5-.9-1.4-2.2 0-1.2-.4-1.9-.9-1.6-.7.4-.8-.1-.3-1.2.6-1.8.6-1.8-1.1-.2-1.7 1.5-1.9 1.5-2-.1-.3-7.9-.7-8.9-2.7-8.5-1.9.4-2 .3-.4-.9 1.4-1.2 1.5-1.5.2-2.4-1.3-.8-2-2.4-2.3-5.6-.1-.4-1-.9-2-1.3-1.4-.4-1.7-1.2-1.3-2.7.4-1.7.2-2-1.1-1.5-1.6.6-3.2-1.8-2.1-3.4.3-.5.1-.9-.4-.9s-.7-1-.5-2.3c.2-1.2-.3-3.1-1.2-4.2-1.6-2-1.6-2-.6.2 1.5 3 1.4 3.6-.3 2.1-.8-.7-1.4-1.5-1.4-1.8 0-.3 0-2-.1-3.9-.1-2.9-.3-3.2-1.6-2.1-.8.7-1.5.9-1.6.4-.7-7.9-1.4-11.2-2.4-12.1-.4-.4-.5-.3-.2.3.4.7.1 1.4-.6 1.7-.9.3-1.3-.5-1.4-2.7-.2-5.9-.3-6.4-1.9-7-1-.4-1.3-.2-.8.6.4.6.3.8-.3.5-.5-.4-1.1-1.9-1.1-3.4-.3-6.1-1.6-8.8-3.1-6.5-.5.8-.8-.2-.9-2.5-.1-5.5-.8-9.2-1.7-10.1-.4-.4-.5-.1-.1.5.4.8.1 1.3-.8 1.3-1.6 0-1.7-.7-1.9-8.3-.1-2.5-.3-2.6-1.3-1.3-1 1.5-1.2 1.4-1.8-.6-.3-1.3-.6-3.5-.6-5 0-2.2-.4-2.6-1.7-2.1-1.5.5-1.5.3.2-1.1 2-1.7 2-1.7 0-1.3-1.6.3-2.1-.1-2.2-1.7-.2-8.1-.3-9.1-1.3-7.6-.9 1.3-1 1.3-1 0 0-1.2-.2-1.3-.9-.1-.6.9-.9.2-.8-2 0-8.5-.3-9.7-2-9.5-1.8.1-1.9-.3-2.5-8.1-.2-2.3-.6-4.4-.9-4.8-.4-.3-.5.5-.4 1.8.2 1.4-.2 2.4-1 2.4-.7 0-1.2-.7-1-1.6.5-2.9-1-10.6-2-10.4-1.6.3-2.4-2.1-2.6-7.8-.1-3-.4-4.8-.7-4.1-.2.6-.9.9-1.5.5-.7-.4-.6.1.2 1 .9 1.2 1 1.7.2 1.7-.7 0-.9.5-.5 1.2s.3.9-.1.5c-.5-.4-1-2.4-1.2-4.5-.3-3.2-.8-7.9-1.2-10.5 0-.4-.6-.7-1.2-.7-.8 0-.8.4 0 1.4.9 1 .8 1.5-.2 1.9-.9.3-1.4-.4-1.4-2.7-.2-6.7-.9-9.1-2.4-8.8-1.2.1-1.5-.6-1.4-2.8.1-1.6-.2-3-.6-3-.5 0-.5-.8-.2-1.7.5-1.2.2-1.5-1-1-.9.3-1.7.3-1.8-.1 0-.4-.2-1.6-.4-2.7s-.5-3.7-.7-5.8c-.1-2.4-.7-3.7-1.6-3.7-1.1 0-1.2.3-.3 1.4.9 1.1.9 1.6 0 2.2-.7.4-.9.3-.5-.4.3-.6.2-1.3-.3-1.6-.5-.4-.8-1.4-.6-2.4.1-.9-.1-2.4-.6-3.3-.5-1-.3-2.1.3-2.7.9-.9.9-1.2.1-1.2-.7 0-1-.9-.8-1.9.3-1.4-.1-1.8-1.2-1.4-1.1.4-1.1.8-.3 1.3.9.5.9.9.1 1.4-.6.4-1.2.4-1.2-.1-.3-2.2-.9-8.1-1-10.3-.1-1.4-.4-1.9-.6-1.3-.3.7-.9 1.3-1.4 1.3-.6 0-.7-.5-.4-1 .3-.6.2-1-.2-1-.5 0-.9-1.5-1-3.3-.2-5.1-.9-7.2-2.4-7.2-.8 0-1.5-1.3-1.7-3-.3-2.6-.5-4.2-1.1-8-.1-.6-.8.1-1.5 1.5-1.4 2.4-1.4 2.4-1.6-1.5-.1-2.2-.2-5-.2-6.3 0-1.4-.6-2.2-1.7-2.2-1.4 0-1.4.2-.1 1 1.1.7 1.1 1 .2 1-.8 0-1 .5-.6 1.2.4.8.3.9-.2.5-.5-.5-1-2.7-1.1-5-.3-5.4-.7-7.5-1.8-8.4-.4-.4-.5-.2-.1.4.8 1.5-1 1.8-1.9.4-.3-.6.3-1.5 1.2-2.1 1.7-1.1 1.7-1.1.1-.6-1.5.4-1.8-.1-1.9-2.7-.1-1.8-.1-3.6 0-4 .1-.5-.3-.6-.9-.2-.6.3-.7 1.2-.3 1.8.4.7 0 .6-1-.2-1.7-1.3-2.4-3.7-.9-2.7.4.2 1.4 0 2.2-.5 1.3-.9 1.3-1 0-.8-3.3.3-4.4-.1-3.3-1.2.6-.6 1-1.8.7-2.5-1.6-5.2-1.4-5-3-2.9-1.4 1.9-1.4 1.9-1.1-.5.3-1.4.1-3.5-.4-4.8-.5-1.4-.5-2.2.2-2.2.5 0 .4-.6-.3-1.4-.8-.8-1.5-1-1.9-.4-.3.5-.9.2-1.3-.7-.9-2.4-.8-2.7.7-1.9.9.6.8.3-.1-.8-.8-.9-1.4-2.9-1.6-4.5-.1-1.5-.5-2.9-.9-3.1-1.6-.5-1.9-.1-.8 1.1.8 1 .7 1.4-.2 1.4-1 0-1.3-1.5-1.3-4.8.1-2.6-.2-4.5-.6-4.3-.5.3-.8-.5-.9-1.8 0-2.2-.1-2.2-.9-.3-.6 1.4-.9 1.6-1 .5-.7-6.7-2.1-9.7-4.1-8.4-.5.2-.6-.5-.4-1.6.2-1.1 0-2-.4-2-1.2 0-.9-3 .3-3 .6 0 .3-.5-.7-1.1-.9-.5-2.1-.7-2.6-.4-.6.3-1-1.2-.9-3.3 0-5.1-1-8.2-2.8-8.2-.8 0-1.4-1-1.4-2.4 0-1.3-.9-3.5-2-4.9-1.1-1.4-2.1-4.2-2.2-6.2-.1-2.1-.4-3.1-.9-2.3-.4.6-.6 1.5-.4 1.8.2.4-.1.7-.8.7-.7 0-1.3-.8-1.3-1.8s.5-1.5 1.1-1.3c.5.3.1-.2-.9-1-1.1-.9-1.4-1.6-.8-1.6.9 0 1-.5.3-1.8-.5-.9-.9-2.1-.9-2.7 0-.5-.6-1.1-1.4-1.3-.9-.2-.8 0 .2.7 1.3 1 1.3 1.1 0 1.1s-1.3.1 0 1.1c1 .7 1.1.9.2.7-.8-.2-1.4-.8-1.4-1.3 0-.6-.4-2-.9-3.3-.6-1.6-.6-2.1.2-1.6.8.4.8.1.1-1.2-.5-1.1-.8-2.7-.7-3.7.2-.9-.1-1.5-.6-1.2-1.3.8-3.4-.7-3.4-2.5 0-.8-.8-1.4-1.7-1.4-1 .1-1.5-.3-1.2-.8.3-.5 1.2-.7 1.9-.4 1.9.7 2.7-.5 1.4-2.1-.8-.9-1.6-1-2.3-.4-.9.7-1.2-.4-1.1-4.2.1-7.9-.8-11.3-2.9-10.9-1 .2-1.6 0-1.3-.5.2-.4.1-1.8-.4-3-.6-1.6-1.3-2-3.1-1.5-2.1.5-2.2.4-.9-1.1 1.4-1.7.8-2.2-2.5-1.8-.6.1-1.6-.9-2.1-2.2-.9-1.8-1.8-2.3-4.2-2.2-1.7.1-3.1-.1-3.1-.4 0-.3-2-.6-4.4-.6-3.6 0-4.3-.3-4.1-1.6.3-1.5-1.3-1.7-15.5-1.6-10.4 0-15.7.3-15.3 1 .4.6.1.7-.8.1-2-1.3-7.6-1.2-7.6.1 0 .7.6 1.2 1.3 1.2.7 0 1.1-.4.8-.9-.4-.5.3-.4 1.5.4 1.2.7 2.1 1.6 2.1 2.1 0 .4-.6.5-1.2 0-1.7-1-12.8-1-12.8 0 0 .4-1.1.5-2.5.3-1.4-.3-2.5 0-2.5.5s.5.9 1.1.9c.5 0 .8.4.4 1-.3.5-1.2.7-2 .3-.8-.3-1.5 0-1.5.7 0 1-.3 1-1.4.1-.9-.8-1.6-.8-2-.2-.4.5-1.5.8-2.5.6-1.1-.2-2.2.3-2.5 1.1-.4 1.2-.2 1.2 1.4.4 1.3-.7 2-.7 2-.1 0 1-6.6 2.8-8.3 2.3-.5-.1-.6.2-.2.8.3.5.1 1.8-.5 2.7-1.1 1.7-1.1 1.7-.6 0 .7-2.1-1-2.3-1.8-.2-.3.8-.9 1.5-1.3 1.4-2.8-.5-3.5.1-2.2 1.8.7 1 .9 1.5.5 1.1-.5-.4-1.5-.3-2.3.3-1 .9-1.3.8-1.3 0 0-.7-.5-.9-1-.6-.6.4-1 1.2-.9 1.8.3 2.7-.2 3.6-1.6 3.1-.8-.4-1.5-.2-1.6.2-.4 4.8-1.9 8.3-3.3 7.8-.7-.3-1.3.1-1.4.8-.5 5.4-.9 7.9-1.7 8.5-.4.4-.5.2-.1-.5s.2-1.2-.6-1.2c-.9 0-1.3 1.2-1.3 3.2 0 1.8-.6 4.2-1.5 5.2-.8 1.1-1 1.6-.3 1.3 1.3-.8 1.2 1.8-.2 3-.4.4-.6.3-.3-.2.3-.6 0-1.6-.7-2.2-1.1-1-1.3-.8-1.1 1 .1 1.3.6 2.9 1.1 3.6.5 1 .4 1.2-.3.7-.8-.5-1.2.3-1.2 2.3 0 1.9-.5 3-1.2 2.8-.7-.1-1.3.4-1.4 1-.1.7-.2 1.4-.3 1.5-.1.2-.4 2.9-.5 6.1-.2 3.1-.5 6-.8 6.3-.3.3-.2 2.1.2 4 .6 2.4.5 3.4-.4 3.3-2.7-.3-3.3.3-3.3 3.6 0 2.1.4 3.2 1.1 2.8.6-.3.5 0-.1.8-1.7 1.8-1.6 4 .1 3.3.8-.3 1.7-.1 2 .4.3.5-.2.9-1.2.8-1.6-.1-1.7 1.9-1.9 25.9-.1 18.9.1 26.3 1 27.4.9 1.2.9 1.3 0 .8-1.7-1-1.4 10 .3 11.4 1.4 1.1 1.3-.2-.1-3.4-.5-1.1-.3-2.3.5-3 1-1 1.1-.7.5 1.3-.7 2.3-.7 2.4 1 1 1.6-1.3 1.8-1.3 1 0-.5.8-.9 2.6-.9 4-.1 1.4-.5 3.1-.9 3.7-.6.9-.3 1.1 1 .6 1.7-.7 1.7-.6-.1 2.1-1 1.6-1.3 2.5-.7 2.2 1.2-.8 1.3.6 1.5 14.5.1 6 .4 7.5 1.4 7.1.8-.2 1-.8.5-1.1-.5-.3-.8-1.2-.7-1.9.1-.6.2-1.7.3-2.4.2-2.5 1.4.4 1.5 3.9.1 2.1.5 4.4.9 5 .8 1.3.2 1.7-1.7 1.4-.5-.1-.4.4.2 1.2.7.8.9 1.7.5 2-.3.4-.2.7.3.7s.9 2.4.8 5.2c-.1 2.9.4 5.9 1 6.7.9 1.2.8 1.3-.4.6-1.3-.8-1.3-.7 0 1 .8 1 1 1.6.5 1.3-1.4-.9-1.2 9.9.2 11.3.7.7.9-.2.9-2.8-.1-2.1-.5-4.1-.9-4.4-.4-.3 0-1.2.9-2 1.3-1 1.6-1 1-.1-.4.7-.2 2 .6 2.9 1 1.3 1 1.5 0 .9-.9-.6-1.1 0-.7 2.5.3 1.8.8 3.6 1.1 4.1.3.4 0 .8-.6.8-1 0-.7 4 .5 6 .3.5.1 1-.5 1s-.8.5-.4 1.1c.3.6.8 4.3.9 8.3.2 3.9.3 7.3.4 7.5.1.2.9-.3 1.9-1 1.5-1.3 1.6-1.2.3.3-.7 1-1.7 1.5-2.2 1.3-.4-.3-.7.8-.6 2.5.2 2.8 1.7 4.4 1.7 1.8 0-.6.3-.8.7-.4.4.3.7 3.3.8 6.6.1 5.6 0 5.8-1.9 4.9-2-1-2-.9.1.9 2.8 2.5 3.2 11.8.5 12.5-1.5.4-1.5.5.1.6 1 0 1.5.5 1.2 1.1-.3.5-.3 1 .2 1 .4 0 .8 13.8.8 30.8 0 26.1.3 30.7 1.5 30.7 1 0 1.4 1.3 1.5 4.7 0 4.6-.4 5.6-1.8 4.1-.4-.3-.1-1.3.6-2.1.9-1.3.9-1.4-.1-.8-1.3.8-1.7-.6-.5-1.8.4-.3.8-1.3.9-2.2.2-1.1-.1-1.2-1.1-.4-1.1.9-1.4 5.1-.5 8.5.1.5.1 1.2 0 1.5-.8 1.8-.4 11.7.5 11.7.6 0 1.1-1.1 1.1-2.3 0-1.2-.3-2.1-.7-1.8-.4.2-.6-.3-.5-1.1.1-.9.6-1.5 1.1-1.5.5 0 1 2.9 1.1 6.5 0 3.5-.3 6.2-.8 5.9-.5-.3-.6-1.4-.3-2.5.4-1.2.2-1.9-.7-1.9-1 0-1.3 1.5-1.3 5.3 0 2.8.4 5.7.8 6.3.3.6.3 1.4-.1 1.8-.4.4-.7 3.4-.7 6.5 0 4.5.3 5.7 1.3 5.3 1.1-.4 1.1-.6 0-1.3-1-.7-1-.9.2-.9 1.3 0 1.3-.1 0-1-.8-.5-1-1-.4-1s1.1-.7 1.1-1.5-.3-1.5-.7-1.5c-.3 0-.6-.9-.7-2-.1-1.1.2-1.8.6-1.6 1 .6.8-5.5-.2-7.2-.5-.7-.3-1.2.5-1.2 1 0 1.3 3.4 1.3 15.4.1 8.5-.3 15.2-.8 14.9-.4-.2-.5-1.3-.2-2.4.4-1.2.2-1.9-.7-1.9-1 0-1.3 1.5-1.3 5.3 0 2.8.4 5.7.8 6.3.3.6.3 1.4-.1 1.8-.4.4-.7 2.9-.7 5.6 0 3.5.3 4.6 1.3 4.2 1.1-.4 1.1-.6 0-1.3-.7-.5-.8-.9-.2-.9.6 0 1.1-.7 1.1-1.5s-.3-1.5-.7-1.5c-.3 0-.6-.9-.7-2-.1-1.1.2-1.8.6-1.6 1 .6.8-5.5-.2-7.2-.5-.7-.3-1.2.5-1.2 1.7 0 2 24.1.4 25.2-.7.5-.6.8.2.8.7 0 1 .4.7 1-.3.5-.1 1 .5 1s.8.5.4 1.2c-1.2 1.9-1.2 8.2 0 9 .8.5.8.8 0 .8-.6 0-.9 2.3-.8 6.2.2 3.5.4 12.3.5 19.6.2 10.8.6 13.5 1.8 14.3 1.4.9 1.4 1-.1.5s-1.8.1-1.8 3.9.3 4.4 1.8 3.9c1.4-.5 1.4-.4.3.4-1.9 1.3-2.6 5.6-.9 4.6 1-.6 1-.4.2.7-.5.8-1 2.1-.9 2.9.1.8.3 2.1.3 2.8.1.7.7 1 1.2.7.8-.5.8-1.1 0-2-.8-.9-.8-1.5 0-2 .6-.4 1-.3.9.2-.1.4 0 1 .1 1.3.2.5.7 23.5 1 51.3.1 5.9.5 10.5 1 10.2.5-.3 1.2-.1 1.5.5.4.6.1.9-.6.8-.7-.2-1.5.6-1.7 1.7-.4 1.8-.3 1.8 1.4.5 1.8-1.4 1.8-1.4.3.5-.8 1.1-1.6 3-1.7 4.3-.1 2.1.1 2.2 1.6 1 1.5-1.1 1.5-1-.1.8-2 2.4-2.3 5.4-.4 5.4.7 0 .8.3.2.8-.6.4-1 5.4-1 11.8 0 9 .2 10.8 1.2 9.5 1.4-1.9 1.4-2 1.8 4.2.3 4.1.1 4.8-1.3 4.2-.9-.3-1.3-.3-.9.1s.1 1.4-.5 2.3c-1 1.3-1 1.4.2.4 1.8-1.7 3-1.6 3 .1 0 .8-.8 1.7-1.7 1.9-1.6.4-1.6.5-.1.6 1.4.1 1.6 1.3 1.6 8.4-.2 27.1.5 40.5 1.8 40 .8-.3 1.4 0 1.4.6s-.5 1-1.2.9c-.8-.2-1.3 1.6-1.4 5.4-.1 3.9.1 5.6.9 5.1.6-.4.7-.1.1.8-1.3 2.1-1.4 12-.1 11.2.6-.4.7-.1.1.8-.5.8-.9 3.7-1 6.6-.2 3.9.1 5 1.1 4.7.7-.3 1.6-.1 1.9.4.3.5-.2.9-1.2.8-1.5-.1-1.7 1-1.8 8.6-.1 5.8-.6 9.3-1.5 10.5-.9 1.1-1 1.4-.2.9.8-.4 1.3-.2 1.3.5 0 .6-.8.9-1.9.6-1.5-.4-1.8 0-1.7 2.3.1 1.9-.5 3.2-1.9 4-1.8 1.2-1.9 1.2-.6-.4.8-.9 1.1-1.9.7-2.3-.3-.3-.6-.1-.6.6s-.4 1-.8.7c-.5-.3-.8 1.3-.8 3.5.1 2.2-.1 4.2-.4 4.4-1.5.9.4 18.4 2.2 20 .8.7.9.6.4-.3-.4-.6-.2-1.2.3-1.2 1 0 1.6 2.9 1.2 5.3-.1.5.3.6.8.3.8-.5 2.6 2.1 2.3 3.5-.1.3.9.4 2.2.2 1.3-.3 2.7.1 3.1.8.5.8.4 1-.3.5-.7-.4-1.2-.3-1.2.1 0 1.5 2.2 3.2 3.5 2.7.7-.3 1.5.5 1.9 2 .4 1.8 1.1 2.4 2.3 1.9 1-.4 1.4-.2.9.5-.3.6-.2 1.3.4 1.7.6.4.8 1 .5 1.5-.3.4.3.7 1.2.5 2.6-.4 3.6.5 2.2 2.1-.9 1.1-.8 1.4.2 1.5 5.3.4 7 .7 7.7 1.4.4.5-.1.6-1 .2-.9-.3-1.9 0-2.1.7-.4.9.5 1.2 2.9 1.1 2.3-.1 3.8.4 4.4 1.4.5.9 1 1.1 1 .6 0-.6 1.5-1.1 3.4-1.1 2.5 0 3.3.4 3.1 1.6-.3 1.9 3.3 2.9 6.3 1.8 1.3-.4 2.8-.5 3.4-.2.9.6 8.2.9 9.1.4.1-.1 1.7-.3 3.4-.4 2.2-.3 3.1 0 2.6.8s-.3.8.8 0c.8-.6 2.1-1 3-.9 1.2.2 1.5-.3 1.2-1.6-.3-1.1 0-1.9.6-1.9.7 0 .9.5.5 1.3-.6.9-.4.9.7.1.8-.6 3.1-1.1 5.2-1 2 0 3.7-.2 3.7-.5 0-.4 1.5-.6 3.4-.4 2.6.1 3.3-.2 2.9-1.2-.5-1.2-.7-1.2-1.4-.1-.7 1.1-.9 1.1-.9-.1 0-.8-.6-1.1-1.6-.7-.8.3-1.3.2-1-.3.3-.5 2.6-.8 5.2-.7 2.5.1 4.7-.1 5-.5.2-.4 1.3-.6 2.4-.4 1.1.2 1.9.1 1.9-.3-.3-1.9.2-3 1.7-3.6.9-.4 1.3-.2.8.5-.5.8-.1.8 1.3 0 1.1-.6 2.4-.7 2.8-.3.5.4.5.2.2-.4-.4-.6.1-2 .9-3 .9-1 1.3-1.3.9-.7-.4 1 0 1 1.7.4 1.3-.5 2.2-1.5 2-2.5-.2-.9.4-1.6 1.3-1.6s1.9-.9 2.3-1.9c.7-1.9 1-2.1 3.3-2.1.5 0 .8-.4.5-.9-1-1.6.5-4 2.3-3.6 1.3.2 1.7-.5 1.9-2.8.3-3.3 1.9-6 3.2-5.2.4.2.7-3.6.6-8.5-.1-5.5.3-9 .9-9 .6 0 .6-.3-.1-.8-.6-.4-1-4.2-1-8.7.1-6.1-.2-7.9-1.2-7.7-.8.1-1.1-.2-.7-.8.3-.6 1.1-.8 1.6-.4.7.4.9-2 .6-6.5-.3-4.8-.1-7.1.7-7.1.8 0 .8-.3 0-.8-.6-.4-1-4.2-1-8.7.1-6.1-.2-7.9-1.2-7.7-.8.1-1.1-.2-.7-.8.3-.6 1.1-.8 1.6-.4.7.4.9-2 .6-6.5-.3-4.8-.1-7.1.7-7.1.7 0 .8-.3.1-.8-.6-.4-1-6.5-1-15.4.1-8.1-.3-14.4-.7-14.2-.4.3-.8 0-.8-.6s-.4-.9-.8-.6c-.4.2-.9-.4-.9-1.5-.1-1.2.4-1.9 1.5-1.8 1.1 0 1.2.2.4.6-.6.2-1 .9-.6 1.4 1 1.7 2 .9 2-1.5 0-1.4-.5-2.2-1.2-1.9-1.9.7-2.5-2.6-.6-3.7 1.6-1.1 1.6-1.1 0-.6-1.2.3-1.8 0-1.8-1 0-.9.5-1.2 1.2-.8.7.5.8.3.3-.6-.5-.8-1-2.9-1.1-4.7-.2-2.7.1-3.2 1.1-2.3 1 .8 1.5.8 2.1-.1.4-.7.3-.9-.4-.5-2.1 1.3-2.6-2.1-2.9-17.9-.5-29.4-.6-30.5-2.1-31.4-1-.6-1.1-1-.3-1.5.6-.4 1.1-.2 1.1.4 0 .6.5.8 1 .5.6-.4.8-1.1.5-1.6-.4-.5-.7-2.7-.7-5 0-3.1-.4-3.9-1.5-3.5-.8.3-1.1.1-.8-.4.3-.6 1.4-1 2.3-1 1.3 0 1.3-.2-.4-1.6-1-.8-1.4-1.3-.9-1 1.4.6 1.7-3.2.3-4-.6-.4-.8-.2-.4.4.3.6.1 1.4-.6 1.8-.7.4-1 .4-.6-.1.4-.4.3-1.6-.2-2.5-.7-1.3-.6-2 .6-2.4.8-.3 1.2-.2.9.4-.3.5.1.7.9.4 1-.4 1.3-1.2.7-2.7-.4-1.2-.7-5.2-.6-8.9 0-3.6-.3-6.4-.7-6.2-.5.3-.6.9-.3 1.4.3.4-.1 1-.8 1.3-1.5.6-1.7-5.4-.2-6.5.7-.5.7-.8 0-.8-.6 0-1.1-2.2-1.1-4.9 0-3 .4-4.7.9-4.4.6.3.7.1.3-.5-.4-.7-.9-2.1-1.1-3.3-.3-1.7 0-2 1.5-1.6 1.1.3 1.8.1 1.4-.4-.3-.5-1.1-.9-1.8-.9-.9 0-1.2-3.6-1.4-14 0-7.7-.3-14.4-.6-14.8-.2-.4-.1-1.4.4-2.2.7-1.1.3-2-1.3-3.3-1.3-1-1.5-1.5-.6-1.1 1.4.4 1.6-.1 1.4-3-.1-1.9.2-4 .6-4.7.9-1.6 0-4.1-1.3-3.3-.6.4-.3-.5.6-1.8.9-1.4 1.3-2.8.9-3.2-1.3-1.2-1.4-4.8-.1-4 .7.5.8.3.2-.7-1.2-2-1.2-19.9.1-19.9.5 0 .2-.5-.8-1.1-.9-.6-1.4-1.5-1.1-2.1.4-.7.2-.8-.5-.4-.6.4-.8 1.3-.4 1.9 1.1 1.8 1.3 5.7.2 5.7-.5 0-.9.5-.9 1.1 0 .5.4.7 1 .4 1.4-.9 1.2.1-.3 1.3-1 .9-1.3-.2-1.1-5.6.1-3.7.3-6.9.4-7.2.1-.3.1-1-.1-1.5-.1-.6-.3-4.7-.4-9.2-.1-7.3.1-8.1 1.4-7 1.2.9 1.2.7-.1-.8s-1.4-2.4-.6-3.9c.6-1.1.7-1.6.1-1.3-1.5.9-1.4-52.4.1-54.2.8-1.1.8-1.3-.1-.7-.8.4-1.3.1-1.3-.9s.5-1.3 1.2-.9c.7.5.9.2.5-.9s-.2-1.4.8-1.1c.7.3 1.6 1.2 1.9 2 .3.9.1 1.2-.4.9-.6-.3-1-.2-1 .4 0 .5.5 1.3 1 1.6.6.3 1 1.7 1 3.1 0 1.5.4 2.3 1 1.9.6-.4.7-1.1.4-1.7-.5-.7-.2-.8.5-.4.7.5 1 1.4.8 2-.3.7-.1 1.9.3 2.7.5.7.5 1.8 0 2.4-.7.9.9 3.2 2.7 3.8.9.2 1.2 1.8 1.4 7 .1 2.1.6 4 1.1 4.3.4.3.6 1 .3 1.5-.4.5-.1.9.4.9 1.5 0 1.4-1.3-.1-2.9-.9-.9-.9-1.2-.1-.7.6.3 1.3.1 1.5-.6.4-1.2 1.1 6.2 1 10.4-.1 1 .6 1.8 1.6 1.8 1.3 0 1.4-.2.4-.9-1.1-.7-1.1-.9.1-1.4 1-.4 1.3.4 1.3 3.4-.2 4.9.9 8 2.6 7.4 1.3-.5 1.5.5 2 8.2.2 2.1.3 2.2 2.1.6 1.5-1.4 1.8-1.4 1.5-.3-.2.8-1.2 2.1-2.3 2.8-2 1.3-2 1.3.1.7 2.5-.6 3.2.6 2.9 5.1-.1 2.5.2 3.1 1.9 3 1.5-.1 2.1.5 2.1 2.4 0 1.5.6 2.5 1.5 2.5 1.3 0 1.9 2.4 2.3 10.2.1 2 .3 2.1 1.7.8s1.6-1.2 1.8.8c.4 3.7.7 5.1 1.6 6.6.7 1 .6 1.2-.4.6-.9-.6-1.1-.4-.6.4.5.7 1.4 1 2.2.7.8-.3 1.4 0 1.3.7-.4 3.1.2 4.6 1.5 4.1.8-.3 1.7-.1 2.1.5.3.6 0 .9-.8.5-1.8-.6-3.2 1.2-1.7 2.1.6.4.8 1 .5 1.5-.3.5-.1 1.1.4 1.5.6.3.8-.3.6-1.5-.2-1.1 0-2 .6-2 .5 0 1 1 1 2.2.1 1.3.2 2.7.4 3.3.1.5.3 1.6.3 2.3.1.7.7 1 1.3.6.8-.5.8-.9-.1-1.4-.8-.5-.9-1-.2-1.4 1.2-.7 2.1 1.5 2.4 6.6.2 3 .5 3.5 1.8 2.8 1.3-.7 1.6-.2 1.8 2.3.4 4.6 1.2 6.8 2.4 6.1.7-.4.6-.9-.2-1.4-.8-.5-.8-.9.3-1.3s1.5 0 1.2 1.3c-.2 1.1.1 2.2.6 2.6.6.3.5 1.2-.3 2.2-1 1.2-1 1.4 0 .8.7-.4 1.2-.1 1.2.8s.5 1.6 1.1 1.6c.5 0 .7-.6.3-1.2-.6-1-.5-1 .8 0 .9.7 1.4 2.4 1.2 3.9-.3 2.8 1.6 5 2.7 3.2.3-.6.9-.1 1.2 1 .3 1.2.1 2.1-.5 2.1-.5 0-.6.6-.1 1.2.8 1.3.9 1.9 1.2 3.9.1.8.6.8 1.6-.1 1.3-1 1.5-.9 1.6 1.1.1 1.3.1 2.8 0 3.2-.1.4.5.7 1.2.5.7-.2 1.2.1 1.2.7 0 .5-.6.9-1.2.7-.7-.2-1.3.1-1.3.6s1 .9 2.3.8c1.2 0 2.1.3 2 .9-.1.5-.3 1.7-.5 2.5-.2.9.4 1.5 1.7 1.5 1.1 0 2.1.6 2.1 1.3.1.6.2 1.3.3 1.4.1.2.3 2 .5 4.1.2 2.1.8 4.3 1.4 4.9 1.2 1.2 1.2-.9-.1-3-.5-.6-.4-1.2.2-1.2 1.2 0 2.2 3 2.3 7 .1 1.7.5 3.3 1 3.6.4.3.5 1 .2 1.6-.4.7-.2.8.5.4.9-.6.9-1.1.1-2.1-.8-.9-.7-1.4.3-1.8.8-.3 1.3.3 1.4 1.7.1 5.9.3 6.7 1.6 6 .8-.5.7-.2-.2.9-1.8 2.2-.8 3.3 1.2 1.3 1.3-1.3 1.5-1.2 1.6.7.1 2.5.7 7.8.9 8.9.1.5.7.8 1.3.8.5 0 .7-.6.3-1.3-.4-.6-.3-.8.1-.4.5.4 1 2 1.2 3.5.2 1.5.6 4.7 1 7.2.3 2.5.6 4.8.5 5.1-.1.4.6.6 1.5.5 1.2-.1 1.6 1 1.7 4.6.3 4.9 1 6.7 2.3 5.4.4-.4.2-1.1-.6-1.5-1-.7-1-.9.2-1.4 1-.4 1.4.2 1.5 2.1 0 1.5.1 2.9.2 3.2.1.3.3 2.5.4 4.9.2 2.9.7 4.6 1.7 4.9 1.1.3 1.1.1-.1-.7-1.3-.9-1.3-1.1.1-1.1 1.1 0 1.6 1 1.8 3.2.5 7.6.7 8.8 2.1 10 1.2 1.1 1.2 1 0-.7s-1.2-1.8 0-.8c1.3 1.2 2.1 5.1 2.3 12.4.1 2.7.5 3.5 1.5 3.1 1-.3 1.1-.7.2-1.2-.9-.5-.8-.9.2-1.2 1-.4 1.4.4 1.5 3.1.4 8.7.9 11.5 2.3 11.9 1.2.3 1.3.2.1-.6-.9-.7-1-1.2-.2-1.6.6-.4 1.2-.4 1.2.1 1.3 8.3 1.3 13.1-.1 14.9-.8 1-1 1.5-.4 1.1.6-.3 1.1 0 1.1.7s-.8 1.1-1.7.9c-1.9-.5-2 0-2.1 9.9 0 11.5.4 14.1 2.4 14.5.9.1 2.5.5 3.5.7.9.3 2 .5 2.3.5.4.1.6.8.5 1.7 0 .9.6 1.8 1.6 1.9.9.2 2.4.8 3.5 1.5 1.6 1 1.6 1.1.1.6-1-.3-1.8-.1-1.8.4 0 1 .8 1.2 6.9 1.4 1.9.1 3.6.7 3.7 1.4.1.7 0 .8-.3.2-.5-1.1-2.3-.4-2.3.9 0 .7 1.4.9 8.3 1.3 1.7 0 3.5.6 3.9 1.2.5.7.8.7.8.1 0-1.2 10.9-1.3 12.7-.2.6.4 1.4.3 1.7-.2.4-.5 3.1-.8 6.1-.7 3 0 5.5-.2 5.5-.6 0-.3 1.5-.5 3.3-.3 2.5.3 2.8.2 1.4-.6-.9-.6-2.1-.8-2.6-.4-.5.3-1.3 0-1.7-.6-.4-.8-.3-.9.4-.5s1.2.3 1.2-.1c0-.5 2.3-.9 5.1-.8 2.8 0 5.3-.3 5.5-.7.2-.3 1.3-.4 2.3-.1 1 .3 2.2-.1 2.7-.8.5-.8.3-1.1-.8-.7-.8.4-1.5.1-1.5-.6 0-.8 1.5-1.2 4.4-1.1 2.4.2 4.3-.2 4.3-.7 0-.5.6-.6 1.3-.2.9.6.9.4-.1-.8-1-1.3-1-1.7.3-2.2.9-.3 1.3-.2 1 .4-.3.6-.1 1 .4 1 .6 0 1.1-.5 1.1-1.2 0-.6.3-.8.7-.5.3.4 1.3.1 2.1-.6 1.3-1 1.5-.9.8.3-.4.8 0 .6.8-.4.9-1.1 1.6-2.2 1.6-2.6 0-.5 2.1-.9 6.3-1 1.6-.1 1.7-.3.5-1.7-.8-1-.8-1.4-.1-1 .6.4 1.4.1 1.7-.5.5-1 .7-1 1.2-.1.4 1 .9.9 2.1-.3 1.3-1.3 1.8-1.3 2.5-.2.7.9.8.5.5-1.4-.2-1.5-.1-2.6.2-2.4.3.2 1.6 0 2.8-.5 1.5-.5 2.1-1.4 1.7-2.4-.4-1.1-.2-1.4.9-.9.8.3 1.8 0 2.2-.5.3-.6 1.2-.8 1.8-.4.7.4.5-.2-.3-1.2-1.4-1.7-1.3-1.8.2-1.3 1.7.7 3.3-1.5 2.9-4.1-.2-.9.3-1.2 1.4-.8 1.8.7 2.5-.6 2.9-5.2.1-1.7.6-3.4 1.1-3.8.4-.4.5-.3.2.3-.4.7-.1 1.4.7 1.7 1 .4 1.3-1.2 1.2-8.1-.1-7.4-.3-8.7-1.7-8.4-2.5.4-2-12.5.5-14.3.9-.7 1.7-1.6 1.7-1.9-.1-.3 0-.7 0-.9.1-.1.2-2 .3-4.1.1-2.2.8-4.2 1.4-4.4.7-.2 1.2.1 1.2.8 0 .6-.5.8-1.2.4s-.8-.3-.4.5c1.4 2.2 2.3.2 2.5-5.1.2-7.3.5-8.4 2.4-10.6 1.6-1.7 2.4-5.4 2.6-12.2.1-2 .3-2.2 1.1-1 .5.8 1 1 1.1.5.6-3.5 1-7.8 1.2-13.3.1-4.2.7-6.6 1.6-7.2 1.7-1 2.2-2.8 2.4-8.8.1-2.9.5-4.1 1.3-3.8.8.3 1.1-.2.9-1.5-.2-1-.1-1.9.3-1.9s.8-2.3.9-5c.1-2.8.7-6 1.4-7.1.6-1.2.7-1.9.2-1.6-.6.4-.9-1.6-.9-4.5.1-4.9.1-5 1.3-2.2.8 1.8 1.2 2.3 1.3 1.1 0-.9.5-1.7 1.1-1.7.5 0 .7-.5.4-1-.4-.6-1.2-.7-1.8-.3-.7.4-.6 0 .2-1 .7-.9 1.1-2.4.7-3.2-.3-.8-.2-1.5.2-1.5s.8-1.2.7-2.8c0-1.5.5-2.6 1.1-2.5.6.1 1.1-.3 1.2-1 .1-.7.4-2.8.6-4.7.3-1.9.6-5.9.7-8.7.1-3.2.5-5.1 1.1-4.7.6.4.5-.2-.1-1.4-1.4-2.6-1.4-3.2 0-3.2.5 0 .8.3.6.7-.3.5.1 1.4.8 2 1.1 1 1.3.5 1-2.7-.2-2.2 0-4.2.4-4.4.4-.3.6-1.8.5-3.5-.1-2.2.3-3.1 1.8-3.4 1.4-.4 1.9-1.2 1.6-2.9-.2-1.3-.9-2.2-1.6-2-.8.1-1.1-.2-.7-.8.3-.6 1.1-.8 1.6-.5.5.4.9-1 .9-3 0-2.4.4-3.4 1.1-2.9.8.5.8.1 0-1.4-.9-1.7-.8-1.9.7-1.5 1.8.4 2.1-.6 2.5-8.7.1-2.3.8-3.7 2-4.2 1.6-.7 2.3-4 1.9-9-.1-1 .8-2.2 1.9-2.8 1.6-.9 2-2 1.8-4.8-.2-2.7.1-3.6 1.1-3.4 1.1.3 1.1 0 0-1.2-.9-1.2-.9-1.6-.1-1.6.7 0 .9-.5.5-1.3-.6-.9-.5-.9.7 0 1.4 1.1 1.6.6 1.8-3.8.1-5 1.7-9.6 2.8-8.5.3.3.1 1.2-.6 2-.9 1-.9 1.5.1 1.9 1 .3 1.4-.8 1.6-3.7.3-5.5.9-11 1.2-11.6.1-.3.2-.8.1-1.3 0-.4.4-.7 1-.7s.9.7.5 1.5c-.3.8-.1 1.5.4 1.5.6 0 1.1-.6 1.1-1.3.2-2.1.6-5.2.7-6.3.1-.6.8-1.1 1.5-1.1 1.3 0 1.8 5.2 1.8 18.5 0 2.3.3 3.1 1.2 2.5.9-.5.9-.3.2.8-1.7 2.2-1.9 6.9-.3 6.9.8 0 .9.3.3.8-.5.4-1 2.8-1.1 5.5 0 3.2.3 4.4 1 3.7 1.2-1.2 1.7-4.2.6-3.5-.5.3-.7-.3-.6-1.2.2-1 .7-1.7 1.2-1.6 1.1.4 1.4 11.1 1.8 62.8.2 23.1.7 42.9 1.1 43.9.5 1.2.5 1.7-.1 1.3-1.2-.7-1.1 11.9.1 14.7.5 1.2.5 1.7-.1 1.3-1.2-.7-1.1 11.9.1 14.7.5 1.1.5 1.7-.1 1.4-.5-.4-1 1.6-1 4.3-.1 3.3.2 4.7 1 4.2.6-.3.5 0-.1.8-.7.7-1.3 2-1.3 2.8 0 1.1.5 1 2.3-.5l2.2-1.9-2 2.5c-2.6 3.1-3.3 8-1.1 8 .8 0 1.7.4 2 .9.4.5-.2.7-1.2.4-1.7-.4-1.8.4-1.9 8.6 0 8.2.1 9 1.6 7.9 1.2-1 1.2-.8-.2.8-1.6 1.9-1.7 5.6-1.6 49.3.1 43.9.2 47.1 1.7 45.9 1.6-1.2 1.6-1.1.2.6-1.6 2-2.2 14.9-.7 13.9.4-.2.5-.9.2-1.4-.4-.5 0-.9.7-.9.8 0 .9-.3.3-.8-1.3-.9-1.3-3.3 0-3 .5.2 1 1.4 1 2.8s.4 3.1.9 3.9c.7 1.1.5 1.3-.6.9-.8-.4-2.1-.2-2.9.4-1.1.8-1 .9.3.4 1.3-.4 2 .3 2.6 2.7.6 2 .5 3.7-.1 4.4-.5.7-.6 1.3-.1 1.3s.9 4.3.9 9.6c0 5.2.3 9.8.7 10 .5.3.6 1 .3 1.5-.4.5-.1.9.5.9.7 0 1-.6.7-1.3-.3-.8-.1-2 .4-2.8.7-1 .9-.4.7 2.1-.1 1.9.1 4.1.5 4.7.4.6.3 1.5-.3 1.8-.7.4-.8 1.1-.2 1.8.6.7.9 3.3.7 6-.1 3.5.2 4.7 1.2 4.7.8 0 1.1.4.8 1-.4.6.1.7 1.1.3 1.4-.5 1.5-.3.6 1.4-.6 1.1-.9 2.3-.6 2.6.4.3.8 4.5.9 9.4.2 4.8.4 9 .5 9.3.1.3.1.9 0 1.5-.1.5.2.6.6.2 1.3-1.3 1.3-5.7 0-5-.6.4-.6 0 .1-.8.9-1.1.9-1.9.2-2.6-.8-.8-.7-1.3 0-1.8.6-.3 1.1-.3 1 .2-.1.4 0 1 .1 1.3.1.3.3 4 .5 8.2.3 7.9 0 8.5-3.7 7.9-.4 0-.5.6-.1 1.5.3.9 1.2 1.3 2.2 1 1.2-.5 1.2-.3-.2.8-1.1.8-2.7 1.3-3.6 1.1-1.3-.2-1.8.3-1.6 1.8.2 2.8-1.2 5.7-2.8 5.7-.8 0-1.2 2.5-1.3 8.5-.1 7.5.1 8.5 1.7 8.5 1 0 2.1.5 2.5 1.2.4.7.3.8-.4.4s-1.2-.3-1.2.3c0 .5.4 1.2.9 1.5.5.3.7 1.6.3 2.8-.3 1.3-.1 1.9.6 1.5 1.8-1.2 4.1.3 3.4 2.1-.5 1.5-.4 1.5 1.1.3s1.7-1.2 1.2.2c-.5 1.2.1 1.4 3.2 1.1 2.1-.2 3.4 0 2.8.4-2.4 1.7-1.4 3.2 2.1 3.2 1.9 0 3.3.4 2.9.9-.3.5-.1 1.3.5 1.6.6.4.9.1.8-.6-.4-1.7 10.9-1.9 12.3-.3.6.8 0 1-1.9.8-1.5-.1-2.7-.3-2.7-.4 0-.1-.8-.3-1.7-.5-1-.2-1.8.1-1.8.6s.5 1 1 1c4.4.6 7.7.4 8.9-.5 1.1-.8 1.3-.8.8.1-.6.9 1.3 1.1 7.1 1 6.3-.2 7.9-.5 7.8-1.7-.1-1 1-1.5 3.4-1.6 12.4-.5 16.2-1 17.3-2.3.9-1.2.9-1.3 0-.7-.7.4-2.1.3-3-.3-1.4-.7-1-.9 1.7-.7 1.9.1 4.1-.2 4.8-.7.7-.6 1.2-.5 1.2.1s.7.9 1.6.5c.8-.3 1.4-1.3 1.1-2.2-.3-1.2.4-1.7 2.7-1.8 7.1-.5 8.1-.8 8-2.6-.1-1.2.3-1.6 1.5-1.2 1.1.3 2.5-.3 3.7-1.7 1.9-2.2 1.9-2.3-.1-.8-1.9 1.4-1.9 1.4-.6-.3 1.7-2.2 3.1-2.2 3.2 0 0 1.3.3 1.2 1-.6.6-1.5 1.5-2.1 2.4-1.7.9.3 1.5-.1 1.5-1 0-1-.6-1.4-1.5-1-.8.3-1.5.3-1.5 0 0-1.2 4.6-2.1 5.8-1.2 1.2 1 1.3.9 1.6-3.2.1-.8.9-1.4 1.8-1.2 1.1.2 1.7-.4 1.7-1.5-.1-3.4.8-5.7 2.2-6.1.8-.2 1 0 .4.5-1.5 1.2-1.6 3-.2 3 1.2 0 1.6-1.5 1.8-6.4.1-1.4.7-2 1.8-1.8 1.6.3 1.9-.5 2.2-5.7 0-.9.8-1.8 1.7-2 2.2-.6 2.5-4.5 2.5-33.8-.1-31.7-.4-38.8-2.2-39.5-1.1-.4-1.2-.3-.1 1 1 1.2 1 1.5-.1 1.5s-1.1.2.1 1c1.2.8 1.2 1 .1 1-1 0-1.1.3-.2 1.4.8 1 .9 1.6.1 2.1-.6.4-1 .3-.9-.2.1-.4 0-1-.1-1.3-.1-.3-.3-2.2-.5-4.3-.2-2.6.3-4.1 1.4-4.8 1.4-.9 1.4-1 0-.6-1.6.5-2.1-2-2.1-11 0-2.2-.4-3-1.2-2.6-.8.5-.8.3 0-.8 1.2-1.4 1.1-4.5-.1-5.7-.3-.4-.4.6-.1 2.1.3 1.5.1 2.5-.4 2.2-.4-.3-1-.1-1.2.5-.2.6-.4-1.6-.5-4.7-.3-12.2-.8-15.6-2.2-16.1-.9-.3-1.1 0-.6.9.5.8.4 1.1 0 .6-.7-.6-1.3-7.5-1.8-20.7 0-.8.2-2.1.4-2.9.2-.7-.2-1.6-1-1.9-.9-.3-1.1 0-.6.8.5.8.4 1.1-.1.7-.5-.3-1.1-1.8-1.2-3.4-.2-1.5-.4-3.6-.5-4.5-.1-.9.3-1.7.8-1.7.6 0 .9 1.6.7 3.6-.1 2 .1 3.3.5 2.9 1.1-1.1 1.1-10.6.1-10.6-.5 0-.6.4-.3 1 .3.5.2 1-.3 1-.6 0-1.2-.6-1.4-1.3-.3-.6-.4-15.8-.4-33.7.1-26.4.3-32.4 1.4-32.2.8.1 1.1-.2.7-.8-.3-.6-1-.8-1.4-.6-.4.3-.7-3.4-.7-8.2 0-7.2.3-8.9 1.8-10 1.2-.9 1.7-2.2 1.3-3.9-.2-1.5 0-3.2.6-3.9.5-.7.6-1.4.2-1.7-.5-.3-.7-4.5-.7-9.4.1-4.8.4-17.9.6-29.1.2-12.6.7-20.2 1.3-20.2.7 0 .7-.3 0-.8-1.3-.9-1.5-8.2-.2-8.2.5 0 .6-.8.2-1.8-1.3-3.3-1.3-6.2.1-6.2 1.5 0 1.5 2.1-.1 3.2-.6.5-.5.8.3.8.7 0 1.1.4.7.9-.3.5-.2 1.2.3 1.4.4.3.7-3 .7-7.3s-.3-7.6-.7-7.3c-.5.2-.8-.1-.8-.8 0-.7-.3-.9-.6-.6-.4.4-.1 1.3.6 2.2.8 1 .9 1.5.1 1.5-1.2 0-1.2.1-1.6-5.7-.1-2.5.2-4 .7-3.6.6.3.7-.2.1-1.3-1.4-3-1-10 .5-9.6.8.1 1.1-.2.7-.8-.3-.6-1-.8-1.5-.5-.7.4-1.1-11.1-1.3-36.2 0-4.5-.4-8-.8-7.7-.5.2-.6 1.1-.3 1.8s-.3 1.7-1.3 2c-1.4.6-1.5.5-.6-.5.7-.7.9-1.9.4-2.8-1.3-2.7-.7-11.6.8-11.3.7.1 1-.2.6-.8-.3-.6-1-.8-1.5-.5-.4.3-.8-2.1-.9-5.3-.2-13.4-.2-13.2-1.9-13.3-1.2 0-1-.3.6-.9 1.8-.8 2.1-1.4 1.4-2.7-.5-1-.8-5-.7-9 .2-5.6 0-6.9-1-6-1 .9-1 1.4-.1 2 .7.6.6.7-.3.5-1.8-.5-2.3-7.6-.7-9.7.6-.9.7-1.2.1-.9-.6.4-1.1-3.6-1.2-11-.2-6.5-.5-13.6-.7-16-.2-2.3 0-4.2.6-4.2.5 0 .6-.6.1-1.3-1.2-1.9-1.4-4.5-.3-5.2.7-.4.6-1.3 0-2.6-.6-1-.8-1.9-.4-1.9.3 0 .2-.6-.3-1.3-.5-.6-.8-2.2-.7-3.4 0-1.2-.2-2-.6-1.8-.4.2-.6 1.6-.5 3 .2 1.4-.1 2.5-.5 2.5-1 0-.7-8 .3-9.7.3-.5.3-1.3-.1-1.7-.4-.4-.8-7.8-.9-16.4-.3-20.3-.5-61.6-.3-62.2 0-.3.2-7.5.3-16 .1-8.5.6-16.1 1.1-16.9.6-.9.5-1.2 0-.8-.6.3-1-1.3-1-3.8-.1-2.7.3-4.2.9-3.8.6.4.7.1.2-.7-1.5-2.4-1.3-12 .2-12s1.3 2.1-.2 3.3c-.6.5-.4.7.5.4 1.2-.3 1.5-2.6 1.5-13-.1-7.5.3-12.3.9-12 .5.4.6.1.1-.7-1.3-2.1-1.3-12-.1-11.2.7.4.7.1 0-.9-.6-.8-1-2.6-.7-4.1.2-1.4-.1-3-.7-3.3-.8-.5-.7-1.2.2-2.3 1.1-1.3 1.1-1.4-.7-.4-1.8.9-2.1.7-2.1-.9 0-1.3.5-1.8 1.6-1.4 1.3.4 1.3.4 0-.7-.9-.8-1.5-3-1.6-5.5 0-3.5.2-4.1 1.9-3.7 1.1.2 1.6 0 1.3-.4-.4-.4-1.3-.7-1.9-.7-.8 0-1.3-2.1-1.4-5.5 0-3-.4-6.3-.8-7.3s-.3-1.7.4-1.7c.6 0 .7-.8.4-1.7-.4-1-.7-3.2-.6-4.9 0-2.2-.4-3.1-1.5-3-1.1.1-1.6-.9-1.6-3.4-.1-1.9-.5-4.1-.9-4.8-.5-.6-.4-1.2.1-1.2 1.4 0 .7-4.3-.9-4.8-2.2-.8-2.9-2.5-1.6-4.1.8-1 .8-1.3.1-.8-.8.5-1.2-.6-1.3-3.1-.1-5.7-.6-8.1-1.9-9.4-.8-.8-1.2-.9-1.2-.1 0 .6.5 1.4 1 1.6.6.3.5.4-.2.3-1.5-.3-2.1-22.3-.6-23.2.4-.3.4-1.3-.1-2.3-1.1-2 .2-5 1.3-3.2.4.6.1 1.1-.6 1.1-1 0-1 .2 0 .9 1.8 1.1 1.9 1.5.5 3.3-1 1.2-1 1.5 0 1.5.8 0 1.2-2 1.2-6.4.1-3.5-.3-6.3-.8-6.3-.4 0-.5-.5-.1-1.2s.3-.8-.4-.4c-.9.5-.9 1.3-.2 2.6s.7 2.1-.2 2.6c-.7.4-.8.3-.4-.4s.3-1.2-.2-1.2-.9-1.2-.8-2.8c.1-2.2-.3-2.7-2.1-2.6-1.2 0-2-.3-1.7-.8.3-.4 1.2-.8 2.1-.8 2.7 0 .8-1.1-2.9-1.7-3.5-.5-5.4-2.3-3.6-3.4.5-.4-7.9-.7-18.8-.8-18.8-.2-19.7-.1-18.4 1.6 1.3 1.7 1.3 1.7-.5.1-1.7-1.6-1.9-1.6-3.2 0-1 1.3-1.2 1.4-.8.1.4-1.1-.1-1.5-1.9-1.5-1.5 0-2.2.5-1.9 1.3zm42.8.3c-.3.5-.1 1 .6 1s1 .3.6.6c-.9.9-2.8-.6-2.2-1.7.4-.5.8-.9 1.1-.9.3 0 .2.4-.1 1zM230.4 21.8c.3.5-.1.9-.9.9s-1.2-.4-.9-.9c.3-.4.7-.8.9-.8.2 0 .6.4.9.8zm17.9 4.5c.3.8-.1 1.4-.9 1.4-1.5 0-1.8-.9-.7-2 .9-.9 1-.9 1.6.6zM261 37.9c0 .5-.7 1.2-1.6 1.5-1.4.5-1.5.4-.4-.9 1.4-1.7 2-1.9 2-.6zm7.4 24.6c-.4.8-.7 1.5-.9 1.5-.2 0-.5-.7-.9-1.5-.3-.9 0-1.5.9-1.5s1.2.6.9 1.5zM680.7 79c-.2 1.1-.5 2.1-.8 2.2-.2.2-.3.1-.2-.1.1-.2-.2-1.2-.8-2.2-.7-1.5-.6-1.9.6-1.9.9 0 1.4.7 1.2 2zM138 83.4c0 .7-.7 1.3-1.5 1.3-1 0-1.2-.4-.5-1.2.5-.7.6-1.6.2-2-.4-.5-.1-.5.6-.1.6.4 1.2 1.3 1.2 2zm543 0c0 .3-.4.8-1 1.1-.5.3-1 .1-1-.4 0-.6.5-1.1 1-1.1.6 0 1 .2 1 .4zm-401 4.4c0 1.5-.2 1.5-1 .2-1.3-2-1.3-3.3 0-2.5.6.3 1 1.4 1 2.3zm4.9 8.5c0 .9-.2.8-.6-.1-.2-.6-1-.9-1.5-.6-.7.4-.8.2-.4-.5.9-1.3 2.6-.5 2.5 1.2zm-151.5 7.5c.3.5-.1.9-.9.9s-1.2-.4-.9-.9c.3-.4.7-.8.9-.8.2 0 .6.4.9.8zm.1 3.3c1.1 1.6.1 1.9-1.3.3-.7-.8-.8-1.4-.3-1.4s1.3.5 1.6 1.1zm159 7.9c.3.6-.1.7-.9.4-1.8-.7-2.1-1.4-.7-1.4.6 0 1.3.4 1.6 1zm392 1c.3.5.1 1-.4 1-.6 0-1.1.5-1.1 1.1 0 .5.4.8.8.5.5-.3.9.1.9.9s-.5 1.5-1.1 1.5c-.6 0-.4.5.4 1.1 1.2.9 1.2 1 .1.7-.9-.3-1.5-1.9-1.6-4.1-.2-3.6.7-4.8 2-2.7zm-.6 10.1c-.9.5-.9.9-.3.9 1.4 0 1.3 6-.1 6-.5 0-.3.5.5 1.1 1.2.8 1.2 1 .1.7-1.6-.5-2.2-5.8-.7-5.8.6 0 .5-.5-.1-1.1-1.3-1.3-.5-4.2.9-3.3.6.4.5 1-.3 1.5zm.7 15.1c.1 3.5 0 3.8-.9 2.2-1.2-2-1.6-5.3-.9-6.7.8-1.6 1.6.4 1.8 4.5zm-.2 5.6c.3.5-.1.9-.9.9s-1.2-.4-.9-.9c.3-.4.7-.8.9-.8.2 0 .6.4.9.8zm.3 4c0 1-.6 1.9-1.2 1.9s-1.1-.9-1.1-1.9c0-1 .6-1.8 1.3-1.8.6 0 1.1.8 1 1.8zm-.3 4c.3.5-.1.9-.9.9s-1.2-.4-.9-.9c.3-.4.7-.8.9-.8.2 0 .6.4.9.8zm-367.9 17c-.3.3-1.1 0-1.8-.7-.9-1-.8-1.1.6-.5 1 .3 1.5.9 1.2 1.2zm12.2 27.2c.1 1.1-.2 2-.8 2-1 0-1.2-2.3-.2-3.3.9-.9.9-1 1 1.3zM514 227c0 .5-.8 1-1.7 1-1.5 0-1.6-.2-.3-1 1.9-1.2 2-1.2 2 0zm167 18.4c0 .3-.4.8-1 1.1-.5.3-1 .1-1-.4 0-.6.5-1.1 1-1.1.6 0 1 .2 1 .4zm-320 36c0 .2-.7.7-1.6 1-.8.3-1.2.2-.9-.4.6-1 2.5-1.4 2.5-.6zm323.6 20.4c-.2.4-.1 1.4.4 2.2.6 1 .3 2.1-.7 3.2-.9 1-1.1 1.8-.5 1.8 1.1 0 1.1 2.5-.1 3.6-.4.4-.1 1.4.6 2.3 1 1.4 1 1.4-.3.4-1.8-1.4-1.8-8.2 0-9.3.8-.5.7-.9-.5-1.4-1.4-.5-1.5-.9-.5-2.1 1.3-1.6 2.5-2.1 1.6-.7zM482 333.4c0 .2-.8 1-1.7 1.7-1.6 1.3-1.7 1.2-.4-.4 1.3-1.6 2.1-2.1 2.1-1.3zM149.5 342c.3.6-.1.7-.9.4-1.8-.7-2.1-1.4-.7-1.4.6 0 1.3.4 1.6 1zm235 1.8c-.3.3-1.1 0-1.8-.7-.9-1-.8-1.1.6-.5 1 .3 1.5.9 1.2 1.2zm-235 4.2c.3.6-.1.7-.9.4-1.8-.7-2.1-1.4-.7-1.4.6 0 1.3.4 1.6 1zm-.5 4c0 .5-.5 1-1.1 1-.5 0-.7-.5-.4-1 .3-.6.8-1 1.1-1 .2 0 .4.4.4 1zm538.8 6.1c-.7.5-.8.9-.3.9 1.3 0 1.7 3.8.5 4.5-.5.3-1.2 0-1.6-.6-.5-.8-.3-.9.6-.4 1 .6 1.2.4.6-1.1-1.5-3.9-1.5-5.3.1-4.7 1.2.5 1.2.7.1 1.4zM149 362c0 .5-.5 1-1.1 1-.5 0-.7-.5-.4-1 .3-.6.8-1 1.1-1 .2 0 .4.4.4 1zm120.5 3c.3.6-.1.7-.9.4-1.8-.7-2.1-1.4-.7-1.4.6 0 1.3.4 1.6 1zm-119.8 11.9c.1 1.1-.4 2.2-1.2 2.4-1.4.6-1.5-1-.2-3.1 1.1-1.6 1.2-1.5 1.4.7zm262.9 26.8c-.7.7-2.6-.7-2.6-1.9 0-.6.6-.6 1.5.2.9.7 1.3 1.5 1.1 1.7zm280 4.2c0 1.1-.4 1.7-.8 1.5-.4-.3-.8-.1-.8.5 0 .5.5 1.2 1 1.4.6.3.5.4-.2.3-2.1-.4-1.6-4.6.7-5.6.1 0 .1.9.1 1.9zM289 413.4c0 .3-.4.8-1 1.1-.5.3-1 .1-1-.4 0-.6.5-1.1 1-1.1.6 0 1 .2 1 .4zm404 0c0 .3-.4.8-1 1.1-.5.3-1 .1-1-.4 0-.6.5-1.1 1-1.1.6 0 1 .2 1 .4zm-132.3 4.2c-.3.3-1.2.4-1.9.1-.8-.3-.5-.6.6-.6 1.1-.1 1.7.2 1.3.5zm-111 4.9c0 .8-.5 1.1-1 .8-.7-.4-.8.1-.3 1.3.6 1.5.5 1.6-.5.7-1-1-.9-1.5.1-2.8 1.5-1.9 1.7-1.9 1.7 0zm242.8 1.4c.3.5.2 1.2-.3 1.5-.5.3-.9-.1-.9-.9 0-1.7.3-1.9 1.2-.6zm-268 2.8c-.2 1-.4 1.9-.4 2.1-.1.2-.6 0-1.1-.3-.8-.5-.7-1.1.1-2.1 1.5-1.8 1.8-1.8 1.4.3zm132 4.1c-.3.3-1.1 0-1.8-.7-.9-1-.8-1.1.6-.5 1 .3 1.5.9 1.2 1.2zM298 433.4c0 1.1-1.9 1.5-2.5.6-.3-.5.1-1 .9-1 .9 0 1.6.2 1.6.4zm130.5 1.6c-.3.5-1.2 1-1.8 1-.7 0-.6-.4.3-1 1.9-1.2 2.3-1.2 1.5 0zm124.5 5.9c0 .6-.4 1.2-.8 1.5-.5.3-.9-.1-.9-.9s.4-1.5.9-1.5c.4 0 .8.4.8.9zm-111.5 5.9c-.3.3-1.1 0-1.8-.7-.9-1-.8-1.1.6-.5 1 .3 1.5.9 1.2 1.2zm106.9 6.1c.3.5-.1 1.1-.9 1.4-.9.4-1.2.1-.8-.9.6-1.6 1-1.7 1.7-.5zm-279.7 11.4c0 .8-.6 1.4-1.4 1.4-.9 0-1-.4-.2-1.4.6-.7 1.2-1.3 1.4-1.3.1 0 .2.6.2 1.3zm-.7 3.7c-.8.5-1 1-.5 1 1.5 0 1.6 4 .2 4-.7 0-.6.4.3 1 .9.6 1 1 .3 1-1.6 0-2.6-1.7-1.3-2.5.7-.4.7-1.2 0-2.5-1.4-2.6-1.3-3 .8-3 1.4 0 1.5.2.2 1zm313 .5c0 .8-.2 1.5-.4 1.5s-.6-.7-1-1.5c-.3-.8-.1-1.5.4-1.5.6 0 1 .7 1 1.5zm-36.3 1c0 .6-.6 1.2-1.2 1.2s-1.2-.6-1.2-1.2.6-1.2 1.2-1.2 1.2.6 1.2 1.2zm151.9.9c.1.7-.4 1.3-1.1 1.3-.7 0-1.1-.7-1-1.6.2-.9.4-1.8.4-2 .2-.8 1.5 1 1.7 2.3zm-114.4 3.4c-1 2-1 10.2 0 11.7.4.6.3 1.7-.2 2.5-.5.9-.4 2 .3 2.9 1 1.2.9 1.3-.2.6-1.1-.6-1.3-.3-.9 1.3.4 1.4.1 2.2-.6 2.2-.6 0-1.2-.9-1.2-2s.4-2 .9-2 .5-.6-.1-1.3c-1.2-1.4-1.1-3.5.1-5.5.5-.7.3-1.2-.4-1.2-.8 0-.8-.4.2-1.6 1-1.3 1-1.7-.2-2.5-1.2-.7-1.2-.9.1-.9 1.2 0 1.2-.2.1-.9-.9-.6-1-1-.2-1.6.9-.5.9-1 0-2.1-1-1.2-.9-1.3.6-.8 1.4.6 1.6.4 1-.6-.5-.9-.4-1.1.3-.6.8.5.9 1.4.4 2.4zm-314.3 4.3c-1 .6-1.1.9-.1.9.6 0 1.2.4 1.2.8 0 .5-.6.9-1.4.9-.7 0-1.2-.7-1.1-1.6.2-.9.4-2 .4-2.4.1-.5.6-.5 1.2-.1.8.4.7.9-.2 1.5zm268.8 18.4c0 .8-.4 1.2-.9.9-.5-.3-.6-1-.3-1.5.9-1.3 1.2-1.1 1.2.6zm45.3 1.4c-.4.9-.6 3.5-.4 5.9.4 4-.7 5.5-2.2 3-.4-.7-.3-.8.4-.4s1.2.3 1.2-.3c0-.5-.5-1.3-1-1.6-.8-.5-.7-1.1.1-2.1.9-1.1.8-1.4-.2-1.4s-1-.3-.1-1.2c1.5-1.5 1.6-3.1 0-2.2-.6.4-.8.3-.5-.3.3-.5 1.3-1 2.1-1 1.1 0 1.2.5.6 1.6zm-313.5 1c.3.5.2 1.2-.3 1.5-.5.3-.9-.1-.9-.9 0-1.7.3-1.9 1.2-.6zm267.5 1.6c1.1-.7.4 3.5-.8 4.7-.5.5-.9-.8-.9-2.9 0-2.1.2-3.2.5-2.5.2.6.8 1 1.2.7zm-198 7.9c0 .2-.8 1-1.7 1.7-1.6 1.3-1.7 1.2-.4-.4 1.3-1.6 2.1-2.1 2.1-1.3zM152.5 510c.3.5.1 1-.4 1-.6 0-1.1-.5-1.1-1 0-.6.2-1 .4-1 .3 0 .8.4 1.1 1zm428.5.1c0 .5.5.7 1.1.3.8-.4.8-.1.2 1.2-1.1 2.3-1 7.4.2 9.3.5.9.4 1.2-.3.7-.6-.3-1.3-.2-1.6.3-.4.5-.2 1.2.4 1.6 1.4.9 1.2 2.7-.2 2.3-1.4-.5-2-16.8-.6-16.8.4 0 .8.5.8 1.1zm.6 21.1c-.1 2.4.3 4.9.9 5.7.7 1.1.7 1.3-.2.8-.6-.4-1.4-.3-1.7.2-.4.5-.2 1.2.4 1.6 1.4.9 1.2 2.7-.2 2.2-1.6-.5-1.8-10.4-.4-13 .6-.9 1.1-1.7 1.2-1.7.1 0 0 1.9 0 4.2zm-53.1 4.7c.3.5.2 1.2-.3 1.5-.5.3-.9-.1-.9-.9 0-1.7.3-1.9 1.2-.6zm-.8 4.6c0 .8-.4 1.2-.9.9-.4-.3-.8-.9-.8-1.5 0-.5.4-.9.8-.9.5 0 .9.7.9 1.5zm165.3-.1c0 .2-.8 1-1.7 1.7-1.6 1.3-1.7 1.2-.4-.4 1.3-1.6 2.1-2.1 2.1-1.3zm-111.4 6.8c-.1 2.4.3 4.9.9 5.7.7 1.1.7 1.3-.2.8-.6-.4-1.4-.3-1.7.2-.4.5-.2 1.2.4 1.6 1.4.9 1.2 2.7-.2 2.2-1.6-.5-1.8-10.4-.4-13 .6-.9 1.1-1.7 1.2-1.7.1 0 0 1.9 0 4.2zm111.1-2.2c-.2 2.4-1.2 2.6-2.1.4-.3-.8-.2-1.2.4-.9.6.3 1 .1 1-.4 0-.6.2-1.1.4-1.1.3 0 .4.9.3 2zm.8 3.9c.3.5 0 1.3-.6 1.6-.5.4-.8 1.3-.6 1.9.3.7-.1 1.3-.8 1.3-1.7 0-1.5-1.8.5-3.5 1.3-1.2 1.3-1.3-.3-.8-1.1.3-1.6.2-1.2-.4.8-1.3 2.2-1.3 3-.1zm-420.8 7.4c0 .8-.6 1.4-1.4 1.4-.9 0-1-.4-.2-1.4.6-.7 1.2-1.3 1.4-1.3.1 0 .2.6.2 1.3zm420.1-.1c-.2.6-1 1.3-1.6 1.4-.9.2-.9.1-.1-.3s.7-.8-.2-1.4c-1.1-.7-1-.9.4-.9 1 0 1.7.5 1.5 1.2zM272 560c-.8.5-1 1-.5 1 1.5 0 1.5 5.8 0 6.4-1.3.5-1.5-1.1-.3-2.9.4-.6.3-1.7-.3-2.5-1.3-2.2-1.1-3 .9-3 1.4 0 1.5.2.2 1zm309.6 1.2c-.2 1.3.1 2.8.6 3.5.6.8.4 1.1-.9.9-1.9-.3-2.2-1.9-.9-4.9 1.1-2.4 1.7-2.1 1.2.5zm-216.5 8.5c0 .5.2 1.6.4 2.5.2 1-.1 1.8-.7 1.8s-.8-.6-.5-1.4c.3-.7 0-1.9-.6-2.5-.8-.8-.8-1.1.1-1.1.7 0 1.2.3 1.3.7zm155.4 3.3c.3.6-.1.7-.9.4-1.8-.7-2.1-1.4-.7-1.4.6 0 1.3.4 1.6 1zm-150.8 7.6c-.3.3-1.2.4-1.9.1-.8-.3-.5-.6.6-.6 1.1-.1 1.7.2 1.3.5zm211 8.9c0 .8-.4 1.2-.9.9-.5-.3-.6-1-.3-1.5.9-1.3 1.2-1.1 1.2.6zm.8 12.5c-.3.5-1.2 1-1.8 1-.7 0-.6-.4.3-1 1.9-1.2 2.3-1.2 1.5 0zm-423.9 5.3c.2 1.9-1.1 2.3-2.1.7-.3-.6 0-1 .7-1 1 0 .9-.3-.2-1.1-1.2-.8-1.2-1-.1-.7.8.2 1.5 1.2 1.7 2.1zm0 3.8c.3.6.1 1.5-.6 1.9-.9.5-.9.9-.1 1.4 1.5.9 1.4 2.9-.1 2.4s-1.9-3.6-.6-4.4c.6-.4.5-1-.3-1.5-1-.6-1-.9-.2-.9.6 0 1.5.5 1.9 1.1zm.1 8.6c.2.6-.4 1.3-1.3 1.7-1.4.5-1.5.4-.5-.8.8-1 .9-1.6.1-1.9-.6-.3-.5-.4.2-.3.6.1 1.3.7 1.5 1.3zm350.4 12c1.3 1.6 1.2 1.7-.3.4-1.7-1.3-2.2-2.1-1.4-2.1.2 0 1 .8 1.7 1.7zM276.6 664c.1 1.7-.3 3-1 3-.6 0-.4.5.4 1.1 1.3.9 1.3 1 0 .6-1-.2-1.5-1.7-1.5-4.4-.1-4.7 2-4.9 2.1-.3zm.1 9c.2 1.1-.3 2-1 2-.8 0-.7.4.3 1.1 1.3.9 1.3 1 0 .6-.8-.2-1.5-1.5-1.6-2.8-.1-4.4 1.6-5.1 2.3-.9zm109.3-.6c0 .2-.8 1-1.7 1.7-1.6 1.3-1.7 1.2-.4-.4 1.3-1.6 2.1-2.1 2.1-1.3zm-109.5 11.1c0 2.5-.5 4.5-1 4.5-.9 0-1.6-7.8-.8-9.3 1-1.9 2 .6 1.8 4.8zm305.2 17.1c-.3.3-1.2.4-1.9.1-.8-.3-.5-.6.6-.6 1.1-.1 1.7.2 1.3.5zm-420.9 27.9c-.3.3-.9-.2-1.2-1.2-.6-1.4-.5-1.5.5-.6.7.7 1 1.5.7 1.8zm.6 3.3c.3.5-.1.9-.9.9s-1.2-.4-.9-.9c.3-.4.7-.8.9-.8.2 0 .6.4.9.8zm428.4 24.6c0 1.7-.5 2.3-1.5 1.9-1-.4-1.1-.9-.4-1.6 1.5-1.5 1.4-3-.1-2.1-.7.4-.8.3-.4-.5 1.1-1.7 2.4-.5 2.4 2.3zm-313.3 12.3c-.2 1-.4 1.9-.4 2.1-.1.2-.6 0-1.1-.3-.8-.5-.7-1.1.1-2.1 1.5-1.8 1.8-1.8 1.4.3zm-123 4.3c.3.6-.1.7-.9.4-1.8-.7-2.1-1.4-.7-1.4.6 0 1.3.4 1.6 1zm5 8c.3.5.1 1-.4 1-.6 0-1.1-.5-1.1-1 0-.6.2-1 .4-1 .3 0 .8.4 1.1 1zm546.2 8.5c0 .6-.6 1.2-1.2 1.2s-1.2-.6-1.2-1.2.6-1.2 1.2-1.2 1.2.6 1.2 1.2zm-449.2 3.4c.3.5.2 1.2-.3 1.5-.5.3-.9-.1-.9-.9 0-1.7.3-1.9 1.2-.6zm-7 4c.3.5.1 1.2-.5 1.6-.5.3-1-.1-1-.9 0-1.8.6-2.1 1.5-.7zm-52 8c.3.5.2 1.2-.3 1.5-.5.3-.9-.1-.9-.9 0-1.7.3-1.9 1.2-.6zm4.5-.5c0 .2-.8 1-1.7 1.7-1.6 1.3-1.7 1.2-.4-.4 1.3-1.6 2.1-2.1 2.1-1.3zm12 0c0 .2-.8 1-1.7 1.7-1.6 1.3-1.7 1.2-.4-.4 1.3-1.6 2.1-2.1 2.1-1.3zm8.3 1c.4 1.1 0 1.3-1.5 1.1-1.1-.3-2.3-.7-2.7-1.1-.3-.4.2-.4 1.2-.1.9.4 1.7.2 1.7-.3 0-1.5.7-1.2 1.3.4zm451.2 21.4c-.3.3-1.1 0-1.8-.7-.9-1-.8-1.1.6-.5 1 .3 1.5.9 1.2 1.2zm-22.1 7c.2.4-.5.9-1.7.9-1.7.2-1.9 0-.7-.7 1.8-1.2 1.8-1.2 2.4-.2zm-29.7 2.8c-.3.3-1.2.4-1.9.1-.8-.3-.5-.6.6-.6 1.1-.1 1.7.2 1.3.5zm9.1.7c.7.5 1.2.4 1.2-.2 0-.6.4-1.1.8-1.1.5 0 .9.6.9 1.3 0 .9-1.2 1.3-3.6 1.1-4.4-.2-4.3-.2-3.7-1.3.7-1 2.5-.9 4.4.2zm-6.4.5c.3.5-.1.9-.9.9s-1.2-.4-.9-.9c.3-.4.7-.8.9-.8.2 0 .6.4.9.8z"/><path d="M580.3 487.1c-.2 2.3.3 2.5 1 .4.4-.8.3-1.6-.1-1.9-.4-.3-.9.4-.9 1.5zM235 21.1c0 .4.6.9 1.3 1.2.8.3 1.4 0 1.4-.7s-.6-1.3-1.4-1.3c-.7 0-1.3.4-1.3.8zm-44.4 1.1c.3.5 1 .6 1.5.3 1.3-.9 1.1-1.2-.6-1.2-.8 0-1.2.4-.9.9zm72.9 22.7c-.3.5-.2 1.2.3 1.5.5.3.9-.1.9-.9 0-1.7-.3-1.9-1.2-.6zm283 8.3c.2 1.6.5 3.2.9 3.5.3.3.1 1.2-.4 1.8-.6.7-.8 2-.4 2.9.7 1.8 2.4 2.2 2.4.6 0-.6-.4-1-1-1-.5 0-1-.5-1-1.1 0-.5.3-.8.8-.6.4.3.7-1.6.7-4.2 0-2.9-.4-4.8-1.1-4.8-.6 0-1 1.3-.9 2.9zm130.6 4.6c-.1.8-.6 1-1.3.6-1-.5-1-.4-.1.6 1.5 1.6 2.8.8 2-1.2-.4-1.1-.6-1.1-.6 0zM547 81c.6 1.1 1.3 2 1.6 2 .2 0 0-.9-.6-2s-1.3-2-1.6-2c-.2 0 0 .9.6 2zm-416.5 20c-.3.6.1.7.9.4 1.8-.7 2.1-1.4.7-1.4-.6 0-1.3.4-1.6 1zm554 7c.3.5.8 1 1.1 1 .2 0 .4-.5.4-1 0-.6-.5-1-1.1-1-.5 0-.7.4-.4 1zm-150 24.9c-.6 1.1 1.3 2.6 2.2 1.7.4-.3 0-.6-.8-.6-1.1 0-1.1-.2.1-1 .9-.6 1-1 .3-1-.6 0-1.4.4-1.8.9zM531 150c1.3 2.4 1.7 2.5 1.7.5 0-.8-.6-1.6-1.4-1.9-1.1-.4-1.1-.1-.3 1.4zm152.5 22.9c-.3.5-.2 1.2.3 1.5.5.3.9-.1.9-.9 0-1.7-.3-1.9-1.2-.6zm-553.2 10.3c-.1 1.1.1 1.6.5 1.2.4-.5 1.1-1.2 1.5-1.5.5-.3.2-.9-.5-1.2-.9-.3-1.4.3-1.5 1.5zM519 196.1c0 .5.5.7 1 .4.6-.3 1-.8 1-1.1 0-.2-.4-.4-1-.4-.5 0-1 .5-1 1.1zm-.2 2.6c.7.3 1.6.2 1.9-.1.4-.3-.2-.6-1.3-.5-1.1 0-1.4.3-.6.6zM135 212c-.9.6-1 1-.3 1 .6 0 1.5-.5 1.8-1 .8-1.2.4-1.2-1.5 0zm208.9 24.8c1.1.8 1.1 1 0 1.5-1 .4-.8.6.4.6 2.1.1 1.8-2.1-.4-2.7-1.2-.3-1.2-.2 0 .6zM499.5 266c.6 3 1.6 4 1.2 1.2-.2-1.2-.6-2.4-1-2.8-.3-.4-.4.4-.2 1.6zm-357 13.9c0 .9.4 2.2.8 2.8.4.6.2 1.3-.5 1.5-.8.3-.7.6.3 1 1.1.4 1.5-.2 1.5-2.8 0-1.8-.5-3.5-1.1-3.8-.7-.2-1.1.3-1 1.3zm352.9.2c-.3.6-.1 1.6.4 2.1.8.8 1.1.5.9-1.1-.1-2.4-.3-2.5-1.3-1zM143 291.9c0 .5.5 1.3 1 1.6.6.3 1 .2 1-.4 0-.5-.4-1.3-1-1.6-.5-.3-1-.2-1 .4zm348 .6c-1.1 1.3-1 1.4.4.9.9-.3 1.6-1 1.6-1.5 0-1.3-.6-1.1-2 .6zm-9 24.9c0 .2.7.6 1.5 1 .8.3 1.5.1 1.5-.4 0-.6-.7-1-1.5-1s-1.5.2-1.5.4zm205.9 31.3c-1.3 1.6-1.2 1.7.4.4.9-.7 1.7-1.5 1.7-1.7 0-.8-.8-.3-2.1 1.3zM399.5 378c-.3.6.1.7.9.4 1.8-.7 2.1-1.4.7-1.4-.6 0-1.3.4-1.6 1zM275 386c-1.1.7-1.1 1-.2 1 .7 0 1 .4.7 1-.3.5-.2 1 .4 1 .5 0 .9-.9.8-2-.1-1.1-.1-2-.2-2 0 0-.7.5-1.5 1zm133 8c-1.3.8-1.2 1 .3 1 .9 0 1.7-.5 1.7-1 0-1.2-.1-1.2-2 0zm283.5 6c-.3.6.1.7.9.4 1.8-.7 2.1-1.4.7-1.4-.6 0-1.3.4-1.6 1zm-237.2 1.7c0 .7.4 1.3.8 1.3s.9-.6 1.2-1.3c.3-.8 0-1.4-.7-1.4s-1.3.6-1.3 1.4zm-307 14.5c-1.2 2-1.2 3.5.1 3.5.7 0 1.2-1.1 1.2-2.4 0-2.6-.2-2.8-1.3-1.1zM574 429.4c0 .2.7.6 1.5 1 .8.3 1.5.1 1.5-.4 0-.6-.7-1-1.5-1s-1.5.2-1.5.4zm-19 4c0 .2.7.9 1.5 1.6 1.3 1.1 1.4 1 .9-.4-.5-1.4-2.4-2.3-2.4-1.2zm19.6 2.8c.3.5 1 .6 1.5.3 1.3-.9 1.1-1.2-.6-1.2-.8 0-1.2.4-.9.9zm-276.4 6c.2.5.8.9 1.3.9s1.1-.4 1.3-.9c.1-.5-.4-.9-1.3-.9s-1.4.4-1.3.9zm-30.7 1.8c-.3.5-.1 1 .4 1 .6 0 1.1-.5 1.1-1 0-.6-.2-1-.4-1-.3 0-.8.4-1.1 1zm-120.4 3.6c0 1.1.3 1.4.6.6.3-.7.2-1.6-.1-1.9-.3-.4-.6.2-.5 1.3zm547.9 2.2c0 .5.7.9 1.5.9s1.2-.4.9-.9c-.3-.4-.9-.8-1.5-.8-.5 0-.9.4-.9.8zm1.1 32.6c-.9 1.1-.9 1.6 0 2.2.7.4.9.3.5-.4-.3-.5 0-1.2.6-1.5.7-.2 1-.7.7-1.1-.3-.4-1.2 0-1.8.8zm-1.1 15.4c0 .5.7.9 1.5.9s1.2-.4.9-.9c-.3-.4-.9-.8-1.5-.8-.5 0-.9.4-.9.8zM531.5 524c-.3.5-.1 1 .4 1 .6 0 1.1-.5 1.1-1 0-.6-.2-1-.4-1-.3 0-.8.4-1.1 1zm-380.2 3.7c-.9.3-1 1-.3 2.3.6 1.1.6 2.1.1 2.4-1 .7-.9 2.5.2 4.3.4.6.3 1.4-.1 1.7-1.2.7-.9 5.6.3 5.6.5 0 1-3.8 1-8.5v-8.4l-1.2.6zM271.5 550c-.3.6.1.7.9.4 1.8-.7 2.1-1.4.7-1.4-.6 0-1.3.4-1.6 1zm83.3 3.7c.7.3 1.6.2 1.9-.1.4-.3-.2-.6-1.3-.5-1.1 0-1.4.3-.6.6zm169.6 3.1c-1.2.8-1.2 4.7 0 5.9.4.5.6.3.5-.2-.2-.6.1-2 .5-3.3.9-2.7.5-3.4-1-2.4zm-165.8 6.4c.3.5 1 .6 1.5.3 1.3-.9 1.1-1.2-.6-1.2-.8 0-1.2.4-.9.9zm333 .6c-.3.5.1.9.9.9s1.5-.4 1.5-.9c0-.4-.4-.8-.9-.8-.6 0-1.2.4-1.5.8zm0 8.4c.3.5 1 .6 1.5.3 1.3-.9 1.1-1.2-.6-1.2-.8 0-1.2.4-.9.9zm-171.1 6.9c-.4.6-.5 1.2-.2 1.5.2.3.7-.2 1-1.1.7-1.7.1-2-.8-.4zm-4.6 11.6c-1 1.1-1 1.4-.1.9.6-.4 1.2-.2 1.2.3 0 .6.5 1.1 1.1 1.1.8 0 .8-.4 0-1.4-.9-1.1-.9-1.5.1-1.9.8-.3.8-.6.2-.6-.6-.1-1.8.7-2.5 1.6zm-8.4 25.2c-.6 1.1.9 2.3 1.9 1.4.9-.9.7-2.3-.3-2.3-.6 0-1.2.4-1.6.9zm-352.9 10.9c-.3.5.1.9.9.9s1.2-.4.9-.9c-.3-.4-.7-.8-.9-.8-.2 0-.6.4-.9.8zM692 640.1c0 .5.5.7 1 .4.6-.3 1-.8 1-1.1 0-.2-.4-.4-1-.4-.5 0-1 .5-1 1.1zm-184.3 7c.7.7 1.5 1 1.8.7.3-.3-.2-.9-1.2-1.2-1.4-.6-1.5-.5-.6.5zM695.5 677c-.3.5.1 1 1 1s1.3-.5 1-1c-.3-.6-.8-1-1-1-.2 0-.7.4-1 1zm-116.4 40.3c-1.3 2.1-1.2 2.1.5.5 1-1 1.6-2 1.3-2.2-.3-.3-1.1.5-1.8 1.7zm129 29.3c1 1.3 1 1.7-.2 2.5-.8.5-.9.9-.3.9.6 0 1 1 .8 2.2-.1 1.3-.3 2.3-.4 2.3-.1 0-.3 1.2-.4 2.7-.2 1.5.1 2.5.6 2.2.4-.3.8 0 .8.5 0 .6-.4 1.1-.9 1.1-1.1 0-.9 1.9.3 3.9.5.7.5 1.6 0 2-1.3.8-1.1 5.7.1 7 .7.7 1-3.4.9-13.2-.2-16.6-.1-15.7-1.5-15.7-.8 0-.7.5.2 1.6zm-560.8 16.5c-.2 2.3.3 2.5 1 .4.4-.8.3-1.6-.1-1.9-.4-.3-.9.4-.9 1.5zm43.7 43.5c0 .8.5 1.2 1 .9.6-.4.8-1.1.5-1.6-.9-1.4-1.5-1.1-1.5.7zm473.5 23.3c-.3.5-.2 1.2.3 1.5.5.3.9-.1.9-.9 0-1.7-.3-1.9-1.2-.6zm-69.5 4.7c0 .8.5 1.2 1 .9.6-.4.8-1.1.5-1.6-.9-1.4-1.5-1.1-1.5.7zm40.8 3.1c.6.3 1 .8.8 1.2-.3.4.1.8.8.8 2.2 0 1.4-2.3-.8-2.4-1.2-.1-1.5.1-.8.4z"/></svg>